G04*
G04 #@! TF.GenerationSoftware,Altium Limited,Altium Designer,21.6.1 (37)*
G04*
G04 Layer_Color=32896*
%FSLAX44Y44*%
%MOMM*%
G71*
G04*
G04 #@! TF.SameCoordinates,EFD3AC72-95A7-48DC-B536-48A4C13C7662*
G04*
G04*
G04 #@! TF.FilePolarity,Positive*
G04*
G01*
G75*
%ADD14C,0.1500*%
%ADD21C,0.3000*%
D14*
X228751Y79391D02*
X232750D01*
Y76392D01*
X230751Y77391D01*
X229751D01*
X228751Y76392D01*
Y74392D01*
X229751Y73393D01*
X231750D01*
X232750Y74392D01*
X226752Y79391D02*
Y75392D01*
X224753Y73393D01*
X222753Y75392D01*
Y79391D01*
X228751Y67593D02*
X229751Y68593D01*
X231750D01*
X232750Y67593D01*
Y66594D01*
X231750Y65594D01*
X229751D01*
X228751Y64594D01*
Y63595D01*
X229751Y62595D01*
X231750D01*
X232750Y63595D01*
X222753Y67593D02*
X223753Y68593D01*
X225752D01*
X226752Y67593D01*
Y63595D01*
X225752Y62595D01*
X223753D01*
X222753Y63595D01*
X220754Y68593D02*
Y62595D01*
X216755D01*
X228751Y56796D02*
X229751Y57796D01*
X231750D01*
X232750Y56796D01*
Y55796D01*
X231750Y54797D01*
X229751D01*
X228751Y53797D01*
Y52797D01*
X229751Y51798D01*
X231750D01*
X232750Y52797D01*
X226752Y57796D02*
Y51798D01*
X223753D01*
X222753Y52797D01*
Y56796D01*
X223753Y57796D01*
X226752D01*
X220754Y51798D02*
Y55796D01*
X218755Y57796D01*
X216755Y55796D01*
Y51798D01*
Y54797D01*
X220754D01*
X228751Y45998D02*
X229751Y46998D01*
X231750D01*
X232750Y45998D01*
Y42000D01*
X231750Y41000D01*
X229751D01*
X228751Y42000D01*
Y43999D01*
X230751D01*
X226752Y41000D02*
Y46998D01*
X222753Y41000D01*
Y46998D01*
X220754D02*
Y41000D01*
X217755D01*
X216755Y42000D01*
Y45998D01*
X217755Y46998D01*
X220754D01*
D21*
X315824Y63946D02*
Y70611D01*
X312492Y73943D01*
X309160Y70611D01*
Y63946D01*
Y68945D01*
X315824D01*
X299163Y72277D02*
X300829Y73943D01*
X304161D01*
X305827Y72277D01*
Y70611D01*
X304161Y68945D01*
X300829D01*
X299163Y67278D01*
Y65612D01*
X300829Y63946D01*
X304161D01*
X305827Y65612D01*
X289166Y73943D02*
X295831D01*
Y68945D01*
X292498Y70611D01*
X290832D01*
X289166Y68945D01*
Y65612D01*
X290832Y63946D01*
X294165D01*
X295831Y65612D01*
X279169Y73943D02*
X282502Y72277D01*
X285834Y68945D01*
Y65612D01*
X284168Y63946D01*
X280835D01*
X279169Y65612D01*
Y67278D01*
X280835Y68945D01*
X285834D01*
X275837Y72277D02*
X274171Y73943D01*
X270839D01*
X269173Y72277D01*
Y65612D01*
X270839Y63946D01*
X274171D01*
X275837Y65612D01*
Y72277D01*
X265840D02*
X264174Y73943D01*
X260842D01*
X259176Y72277D01*
Y65612D01*
X260842Y63946D01*
X264174D01*
X265840Y65612D01*
Y72277D01*
X313325Y54747D02*
Y48082D01*
X309993Y44750D01*
X306660Y48082D01*
Y54747D01*
X303328Y53081D02*
X301662Y54747D01*
X298330D01*
X296664Y53081D01*
Y51414D01*
X298330Y49748D01*
X299996D01*
X298330D01*
X296664Y48082D01*
Y46416D01*
X298330Y44750D01*
X301662D01*
X303328Y46416D01*
X293331Y44750D02*
Y46416D01*
X291665D01*
Y44750D01*
X293331D01*
X285001D02*
X281669D01*
X283335D01*
Y54747D01*
X285001Y53081D01*
X276670Y44750D02*
Y46416D01*
X275004D01*
Y44750D01*
X276670D01*
X268340Y53081D02*
X266673Y54747D01*
X263341D01*
X261675Y53081D01*
Y46416D01*
X263341Y44750D01*
X266673D01*
X268340Y46416D01*
Y53081D01*
M02*
