G04*
G04 #@! TF.GenerationSoftware,Altium Limited,Altium Designer,21.6.1 (37)*
G04*
G04 Layer_Physical_Order=1*
G04 Layer_Color=255*
%FSLAX44Y44*%
%MOMM*%
G71*
G04*
G04 #@! TF.SameCoordinates,EFD3AC72-95A7-48DC-B536-48A4C13C7662*
G04*
G04*
G04 #@! TF.FilePolarity,Positive*
G04*
G01*
G75*
%ADD12C,0.2000*%
G04:AMPARAMS|DCode=15|XSize=1.9mm|YSize=0.6mm|CornerRadius=0.15mm|HoleSize=0mm|Usage=FLASHONLY|Rotation=90.000|XOffset=0mm|YOffset=0mm|HoleType=Round|Shape=RoundedRectangle|*
%AMROUNDEDRECTD15*
21,1,1.9000,0.3000,0,0,90.0*
21,1,1.6000,0.6000,0,0,90.0*
1,1,0.3000,0.1500,0.8000*
1,1,0.3000,0.1500,-0.8000*
1,1,0.3000,-0.1500,-0.8000*
1,1,0.3000,-0.1500,0.8000*
%
%ADD15ROUNDEDRECTD15*%
%ADD16R,1.0000X0.8000*%
%ADD17R,0.8900X0.9300*%
%ADD18R,2.7000X1.0000*%
%ADD19R,1.7000X0.6000*%
%ADD21C,0.3000*%
%ADD22C,3.0000*%
G36*
X291185Y146588D02*
X300211Y145502D01*
X309075Y143487D01*
X317682Y140564D01*
X325941Y136764D01*
X333760Y132128D01*
X341057Y126707D01*
X347753Y120559D01*
X353775Y113749D01*
X359059Y106352D01*
X363548Y98447D01*
X367192Y90119D01*
X369954Y81458D01*
X371803Y72558D01*
X372719Y63514D01*
X372693Y54423D01*
X371725Y45384D01*
X369825Y36495D01*
X367013Y27850D01*
X363321Y19543D01*
X358787Y11664D01*
X353461Y4298D01*
X347399Y-2477D01*
X340669Y-8587D01*
X333340Y-13966D01*
X325494Y-18557D01*
X317215Y-22310D01*
X308590Y-25183D01*
X299715Y-27148D01*
X290683Y-28181D01*
X281593Y-28273D01*
X272543Y-27422D01*
X263629Y-25637D01*
X254949Y-22938D01*
X246595Y-19353D01*
X238657Y-14922D01*
X231222Y-9692D01*
X224370Y-3719D01*
X218173Y2932D01*
X212699Y10190D01*
X208004Y17981D01*
X206300Y21570D01*
X206547Y97337D01*
X208245Y100906D01*
X212982Y108665D01*
X218497Y115891D01*
X224732Y122507D01*
X231619Y128440D01*
X239084Y133628D01*
X247047Y138013D01*
X255421Y141550D01*
X264117Y144199D01*
X273040Y145933D01*
X282096Y146732D01*
X291185Y146588D01*
D02*
G37*
%LPC*%
G36*
X294950Y108100D02*
X282650D01*
Y95400D01*
X286562D01*
Y92638D01*
X286336Y92298D01*
X286087Y91050D01*
Y75050D01*
X286122Y74873D01*
X285128Y73661D01*
X283872D01*
X282877Y74873D01*
X282913Y75050D01*
Y91050D01*
X282664Y92298D01*
X281957Y93357D01*
X280898Y94064D01*
X279650Y94313D01*
X276650D01*
X275401Y94064D01*
X274343Y93357D01*
X273636Y92298D01*
X273387Y91050D01*
Y75050D01*
X273423Y74873D01*
X272380Y73603D01*
X263351D01*
X262503Y74451D01*
Y74500D01*
X262293Y75554D01*
X261697Y76447D01*
X261696Y76447D01*
X261450Y76693D01*
Y82200D01*
X241050D01*
Y72800D01*
X257099D01*
X257207Y72257D01*
X257803Y71364D01*
X258294Y70873D01*
X257808Y69700D01*
X241050D01*
Y60300D01*
X261450D01*
Y62247D01*
X274610D01*
X288247Y48610D01*
Y44993D01*
X288101Y44964D01*
X287043Y44257D01*
X286336Y43199D01*
X286087Y41950D01*
Y25950D01*
X286336Y24701D01*
X287043Y23643D01*
X288101Y22936D01*
X289350Y22687D01*
X292350D01*
X293598Y22936D01*
X294657Y23643D01*
X295364Y24701D01*
X295613Y25950D01*
Y41950D01*
X295364Y43199D01*
X294657Y44257D01*
X293753Y44861D01*
Y49750D01*
X293543Y50803D01*
X292947Y51697D01*
X277816Y66827D01*
X277882Y67325D01*
X278261Y68097D01*
X308600D01*
X309653Y68307D01*
X310547Y68903D01*
X318193Y76550D01*
X327700D01*
Y87950D01*
X314300D01*
Y85803D01*
X308313D01*
Y91050D01*
X308064Y92298D01*
X307357Y93357D01*
X306299Y94064D01*
X305050Y94313D01*
X302050D01*
X300801Y94064D01*
X299743Y93357D01*
X299036Y92298D01*
X298787Y91050D01*
Y75050D01*
X298822Y74873D01*
X297828Y73661D01*
X296572D01*
X295577Y74873D01*
X295613Y75050D01*
Y91050D01*
X295364Y92298D01*
X294657Y93357D01*
X293598Y94064D01*
X293268Y94130D01*
X293393Y95400D01*
X294950D01*
Y108100D01*
D02*
G37*
G36*
X261450Y57200D02*
X241050D01*
Y47800D01*
X261450D01*
Y49237D01*
X269649D01*
X273737Y45149D01*
Y43351D01*
X273636Y43199D01*
X273387Y41950D01*
Y25950D01*
X273636Y24701D01*
X274343Y23643D01*
X275401Y22936D01*
X276650Y22687D01*
X279650D01*
X280898Y22936D01*
X281957Y23643D01*
X282664Y24701D01*
X282913Y25950D01*
Y41950D01*
X282664Y43199D01*
X281957Y44257D01*
X280898Y44964D01*
X280263Y45091D01*
Y46500D01*
X280014Y47749D01*
X279307Y48807D01*
X273307Y54807D01*
X272249Y55514D01*
X271000Y55763D01*
X261450D01*
Y57200D01*
D02*
G37*
G36*
X266950Y45213D02*
X263950D01*
X262701Y44964D01*
X261643Y44257D01*
X260936Y43199D01*
X260687Y41950D01*
Y25950D01*
X260936Y24701D01*
X261643Y23643D01*
X262701Y22936D01*
X263950Y22687D01*
X266950D01*
X268199Y22936D01*
X269257Y23643D01*
X269964Y24701D01*
X270213Y25950D01*
Y41950D01*
X269964Y43199D01*
X269257Y44257D01*
X268199Y44964D01*
X266950Y45213D01*
D02*
G37*
%LPD*%
D12*
X308600Y70850D02*
X318000Y80250D01*
X319500D01*
X262210Y70850D02*
X308600D01*
X305000Y82538D02*
X305512Y83050D01*
X320200D02*
X321000Y82250D01*
X305512Y83050D02*
X320200D01*
X305000Y82000D02*
Y82538D01*
X304500Y77500D02*
Y79250D01*
X259750Y73310D02*
X262210Y70850D01*
X259750Y73310D02*
Y74500D01*
X256750Y77500D02*
X259750Y74500D01*
X251250Y77500D02*
X256750D01*
X251250Y65000D02*
X275750D01*
X291000Y49750D01*
Y36250D02*
Y49750D01*
D15*
X303550Y33950D02*
D03*
X290850D02*
D03*
X278150D02*
D03*
X265450D02*
D03*
Y83050D02*
D03*
X278150D02*
D03*
X290850D02*
D03*
X303550D02*
D03*
D16*
X321000Y82250D02*
D03*
Y65250D02*
D03*
D17*
X304200Y101750D02*
D03*
X288800D02*
D03*
D18*
X219250Y96000D02*
D03*
Y21500D02*
D03*
D19*
X251250Y65000D02*
D03*
Y77500D02*
D03*
Y52500D02*
D03*
Y40000D02*
D03*
D21*
X289825Y84075D02*
Y102425D01*
X289750Y102500D02*
X289825Y102425D01*
Y84075D02*
X290850Y83050D01*
X277000Y38250D02*
Y46500D01*
Y38250D02*
X278250Y37000D01*
X271000Y52500D02*
X277000Y46500D01*
X251250Y52500D02*
X271000D01*
D22*
X285000Y130000D02*
D03*
Y-10000D02*
D03*
M02*
