G04*
G04 #@! TF.GenerationSoftware,Altium Limited,Altium Designer,24.4.1 (13)*
G04*
G04 Layer_Physical_Order=2*
G04 Layer_Color=16711680*
%FSLAX44Y44*%
%MOMM*%
G71*
G04*
G04 #@! TF.SameCoordinates,86602617-A544-4118-9BD9-6EC9FA3B74FD*
G04*
G04*
G04 #@! TF.FilePolarity,Positive*
G04*
G01*
G75*
%ADD22C,3.0000*%
G36*
X291185Y146588D02*
X300211Y145502D01*
X309075Y143487D01*
X317682Y140564D01*
X325941Y136764D01*
X333760Y132128D01*
X341057Y126707D01*
X347753Y120559D01*
X353775Y113749D01*
X359059Y106352D01*
X363548Y98447D01*
X367192Y90119D01*
X369954Y81458D01*
X371803Y72558D01*
X372719Y63514D01*
X372693Y54423D01*
X371725Y45384D01*
X369825Y36495D01*
X367013Y27850D01*
X363321Y19543D01*
X358787Y11664D01*
X353461Y4298D01*
X347399Y-2477D01*
X340669Y-8587D01*
X333340Y-13966D01*
X325494Y-18557D01*
X317215Y-22310D01*
X308590Y-25183D01*
X299715Y-27148D01*
X290683Y-28181D01*
X281593Y-28273D01*
X272543Y-27422D01*
X263629Y-25637D01*
X254949Y-22938D01*
X246595Y-19353D01*
X238657Y-14922D01*
X231222Y-9692D01*
X224370Y-3719D01*
X218173Y2932D01*
X212699Y10190D01*
X208004Y17981D01*
X206300Y21570D01*
X206547Y97337D01*
X208245Y100906D01*
X212982Y108665D01*
X218497Y115891D01*
X224732Y122507D01*
X231619Y128440D01*
X239084Y133628D01*
X247047Y138013D01*
X255421Y141550D01*
X264117Y144199D01*
X273040Y145933D01*
X282096Y146732D01*
X291185Y146588D01*
D02*
G37*
D22*
X285000Y130000D02*
D03*
Y-10000D02*
D03*
M02*
